<?xml version="1.0" encoding="UTF-8" standalone="no"?><svg xmlns:svg="http://www.w3.org/2000/svg" xmlns="http://www.w3.org/2000/svg" version="1.1" style="overflow:visible" viewBox="-250 -250 500 500" height="500px" width="500px"><rect fill-opacity="0" fill="rgb(0,0,0)" height="500" width="500" y="-250" x="-250" /><svg version="1.1" y="-250" x="-250" viewBox="-250 -250 500 500" height="500px" width="500px" style="overflow:visible"><g transform="rotate(0,0,0)" stroke-linejoin="round" fill="#fff"><path stroke-linecap="butt" stroke-linejoin="round" stroke="none" fill="rgb(255,255,255)" d="m187 0a187 187 0 0 1-187 187a187 187 0 0 1-187-187a187 187 0 0 1 187-187a187 187 0 0 1 187 187z" /><path stroke-linecap="butt" stroke-linejoin="round" stroke="none" fill="rgb(65,105,225)" d="m-9.842001-167.3852h19.6842v35.4316h-19.6842z" /><path stroke-linecap="butt" stroke-linejoin="round" stroke="none" fill="rgb(65,105,225)" d="m76.61-144.503l10.2282 5.90527l-13.779 23.8658l-10.2282-5.90525z" /><path stroke-linecap="butt" stroke-linejoin="round" stroke="none" fill="rgb(65,105,225)" d="m138.598-86.838l5.90526 10.2282l-23.8658 13.779l-5.90527-10.2282z" /><path stroke-linecap="butt" stroke-linejoin="round" stroke="none" fill="rgb(65,105,225)" d="m167.385-9.842001v19.6842h-35.4316v-19.6842z" /><path stroke-linecap="butt" stroke-linejoin="round" stroke="none" fill="rgb(65,105,225)" d="m144.503 76.61l-5.90526 10.2282l-23.8658-13.779l5.90527-10.2282z" /><path stroke-linecap="butt" stroke-linejoin="round" stroke="none" fill="rgb(65,105,225)" d="m86.838 138.598l-10.2282 5.90525l-13.779-23.8658l10.2282-5.90526z" /><path stroke-linecap="butt" stroke-linejoin="round" stroke="none" fill="rgb(65,105,225)" d="m9.841999 167.385h-19.6842v-35.4316h19.6842z" /><path stroke-linecap="butt" stroke-linejoin="round" stroke="none" fill="rgb(65,105,225)" d="m-76.610001 144.503l-10.2282-5.90525l13.7789-23.8658l10.2282 5.90526z" /><path stroke-linecap="butt" stroke-linejoin="round" stroke="none" fill="rgb(65,105,225)" d="m-138.598 86.838l-5.90527-10.2282l23.8658-13.779l5.90527 10.2282z" /><path stroke-linecap="butt" stroke-linejoin="round" stroke="none" fill="rgb(65,105,225)" d="m-167.3852 9.841999v-19.6842h35.4316v19.6842z" /><path stroke-linecap="butt" stroke-linejoin="round" stroke="none" fill="rgb(65,105,225)" d="m-144.503-76.610001l5.90527-10.2282l23.8658 13.779l-5.90527 10.2282z" /><path stroke-linecap="butt" stroke-linejoin="round" stroke="none" fill="rgb(65,105,225)" d="m-86.838-138.598l10.2282-5.90527l13.779 23.8659l-10.2282 5.90525z" /><path stroke-linecap="butt" stroke-linejoin="round" stroke="none" fill="rgb(0,0,0)" d="m6 0a6 6 0 0 1-6 6a6 6 0 0 1-6-6a6 6 0 0 1 6-6a6 6 0 0 1 6 6z" /><path stroke-linecap="butt" stroke-linejoin="round" stroke-width="10" stroke-opacity="1" stroke="rgb(65,105,225)" fill="none" d="m187 0a187 187 0 0 1-187 187a187 187 0 0 1-187-187a187 187 0 0 1 187-187a187 187 0 0 1 187 187z" /></g></svg><svg version="1.1" y="-250" x="-250" viewBox="-250 -250 500 500" height="500px" width="500px" style="overflow:visible"><g transform="rotate(300,0,0)" stroke-linejoin="round" fill="#fff"><path stroke-linecap="butt" stroke-linejoin="round" stroke="none" fill="rgb(65,105,225)" d="m-6.84-103.65184l-4.560001 103.29236l3.04 31.987716h16.719999l3.04-31.987717l-4.560001-103.29236z" /><path stroke-linecap="butt" stroke-linejoin="round" stroke="none" fill="rgb(255,255,255)" d="m6.74804 0a6.747857 6.747857 0 0 1-6.747858 6.747857a6.747857 6.747857 0 0 1-6.747858-6.747858a6.747857 6.747857 0 0 1 6.747857-6.747858a6.747857 6.747857 0 0 1 6.747857 6.747857z" /><path stroke-linecap="butt" stroke-linejoin="round" stroke-width="0" stroke-opacity="0" stroke="rgb(0,0,0)" fill="none" d="m-6.84-103.65184l-4.560001 103.29236l3.04 31.987716h16.719999l3.04-31.987717l-4.560001-103.29236z" /></g></svg><svg version="1.1" y="-250" x="-250" viewBox="-250 -250 500 500" height="500px" width="500px" style="overflow:visible"><g transform="rotate(60,0,0)" stroke-linejoin="round" fill="#fff"><path stroke-linecap="butt" stroke-linejoin="round" stroke="none" fill="rgb(65,105,225)" d="m-5.29264-146.21222l-3.52849 145.85236l2.352329 31.987716h12.937783l2.352321-31.987717l-3.52849-145.85236z" /><path stroke-linecap="butt" stroke-linejoin="round" stroke="none" fill="rgb(255,255,255)" d="m6.74804 0a6.747857 6.747857 0 0 1-6.747858 6.747857a6.747857 6.747857 0 0 1-6.747858-6.747858a6.747857 6.747857 0 0 1 6.747857-6.747858a6.747857 6.747857 0 0 1 6.747857 6.747857z" /><path stroke-linecap="butt" stroke-linejoin="round" stroke-width="0" stroke-opacity="0" stroke="rgb(0,0,0)" fill="none" d="m-5.29264-146.21222l-3.52849 145.85236l2.352329 31.987716h12.937783l2.352321-31.987717l-3.52849-145.85236z" /></g></svg></svg>