<svg id="Outline" xmlns="http://www.w3.org/2000/svg" width="40" height="40" viewBox="0 0 40 40">
  <defs>
    <style>
      .cls-1 {
        fill: none;
      }
    </style>
  </defs>
  <g>
    <path d="M33,8H7a3.00328,3.00328,0,0,0-3,3V29a3.00328,3.00328,0,0,0,3,3H33a3.00328,3.00328,0,0,0,3-3V11A3.00328,3.00328,0,0,0,33,8Zm-.41406,2L20,22.58594,7.41406,10ZM33,30H7a1.001,1.001,0,0,1-1-1V11.41406L19.293,24.707a.99963.99963,0,0,0,1.41406,0L34,11.41406V29A1.001,1.001,0,0,1,33,30Z"/>
    <rect class="cls-1" width="40" height="40"/>
  </g>
</svg>
